<svg viewBox="0 0 191 191" fill="#577023" xmlns="http://www.w3.org/2000/svg">
<path d="M92.2069 145.815L100.789 142.954C101.266 141.563 101.819 140.214 102.448 138.917L98.4072 130.835L111.08 118.163L118.552 121.904V72.4483H0V151.483H92.2069V145.815ZM6.58621 79.0345H59.2759V118.552H6.58621V79.0345Z"/>
<path d="M102.448 170.632C101.819 169.334 101.266 167.988 100.789 166.594L92.2068 163.737V158.069H23.3749C41.5384 179.069 67.4523 191 95.4999 191C100.258 191 104.98 190.638 109.644 189.947L98.4104 178.714L102.448 170.632Z"/>
<path d="M13.1724 108.1L32.931 91.1633L52.6897 108.1V85.6207H13.1724V108.1Z"/>
<path d="M118.552 46.1035H0V65.8621H118.552V46.1035ZM13.1724 59.2759H6.58621V52.6897H13.1724V59.2759ZM26.3448 59.2759H19.7586V52.6897H26.3448V59.2759ZM39.5172 59.2759H32.931V52.6897H39.5172V59.2759Z"/>
<path d="M18.7809 111.966H47.081L32.931 99.8367L18.7809 111.966Z"/>
<path d="M95.5 0C64.5741 0 36.0827 14.6646 18.1185 39.5172H118.552V35.2256L135.017 10.5273L151.483 35.2256V121.904L158.955 118.169L171.627 130.841L167.586 138.923C168.215 140.221 168.768 141.566 169.246 142.961L176.853 145.496C186.11 130.489 191 113.389 191 95.5C191 42.8393 148.161 0 95.5 0V0Z"/>
<path d="M135.017 22.4037L127.997 32.931H142.038L135.017 22.4037Z"/>
<path d="M135.017 138.31C125.939 138.31 118.552 145.697 118.552 154.776C118.552 163.854 125.939 171.241 135.017 171.241C144.096 171.241 151.483 163.854 151.483 154.776C151.483 145.697 144.096 138.31 135.017 138.31ZM135.017 164.655C129.571 164.655 125.138 160.222 125.138 154.776C125.138 149.33 129.571 144.897 135.017 144.897C140.463 144.897 144.897 149.33 144.897 154.776C144.897 160.222 140.463 164.655 135.017 164.655Z"/>
<path d="M125.138 65.862V114.725L126.056 111.965H131.724H138.31H143.978L144.896 114.725V39.5172H138.31H131.724H125.138V65.862Z"/>
<path d="M163.452 146.471C162.838 144.363 162.015 142.364 161.007 140.526L160.177 139.015L163.612 132.139L157.654 126.182L150.778 129.616L149.267 128.786C147.426 127.775 145.427 126.952 143.322 126.341L141.666 125.86L139.228 118.552H130.803L128.365 125.86L126.709 126.341C124.604 126.952 122.605 127.775 120.764 128.786L119.253 129.616L112.377 126.182L106.42 132.139L109.854 139.015L109.025 140.526C108.013 142.364 107.19 144.363 106.577 146.471L106.096 148.127L98.7931 150.565V158.99L106.101 161.428L106.582 163.084C107.193 165.189 108.016 167.188 109.028 169.029L109.857 170.54L106.423 177.416L112.38 183.373L119.256 179.939L120.767 180.769C122.609 181.78 124.607 182.603 126.712 183.216L128.368 183.697L130.806 191H139.232L141.669 183.692L143.326 183.211C145.43 182.6 147.429 181.777 149.27 180.765L150.782 179.936L157.657 183.37L163.615 177.413L160.18 170.537L161.01 169.026C162.021 167.185 162.845 165.186 163.457 163.081L163.938 161.425L171.241 158.987V150.561L163.933 148.124L163.452 146.471ZM135.017 177.828C122.306 177.828 111.966 167.487 111.966 154.776C111.966 142.065 122.306 131.724 135.017 131.724C147.728 131.724 158.069 142.065 158.069 154.776C158.069 167.487 147.728 177.828 135.017 177.828Z"/>
</svg>
