<svg viewBox="0 0 192 191" fill="#577023" xmlns="http://www.w3.org/2000/svg">
<path d="M56.3301 157.053C56.3301 144.708 46.2917 134.67 33.9473 134.67C21.6028 134.67 11.5645 144.708 11.5645 157.053V168.244C11.5645 174.414 6.16945 179.809 0 179.809V191H22.7559C41.2698 191 56.3301 175.567 56.3301 157.053Z"/>
<path d="M93.6583 46.8543C90.672 47.6575 88.8974 50.7158 89.7021 53.7069C90.4732 56.5846 93.4263 58.4775 96.5547 57.6631C99.5615 56.8543 101.307 53.7811 100.511 50.8105C99.7029 47.8086 96.6121 46.0579 93.6583 46.8543Z"/>
<path d="M62.0022 89.3195C64.9717 90.107 68.0442 88.379 68.8548 85.3633C69.6629 82.3482 67.8644 79.3064 64.9038 78.5107H64.8983C63.3109 78.0824 62.8819 78.4047 61.7594 78.7711C61.8228 82.1434 61.8672 85.6423 61.8907 89.2646C61.9317 89.2766 61.9605 89.3087 62.0022 89.3195Z"/>
<path d="M123.681 137.287C122.871 134.278 119.783 132.539 116.828 133.336C113.79 134.153 112.082 137.253 112.872 140.189C113.67 143.167 116.708 144.927 119.725 144.145C122.711 143.342 124.485 140.284 123.681 137.293V137.287Z"/>
<path d="M142.304 67.8055C144.485 65.6198 144.485 62.0676 142.304 59.8871C140.122 57.7055 136.577 57.6966 134.386 59.8871C132.205 62.0676 132.205 65.625 134.391 67.8055C136.566 69.9804 140.118 69.9804 142.304 67.8055Z"/>
<path d="M107.019 11.2694C88.637 11.9319 71.7634 19.1985 58.3136 28.4239C59.821 38.6857 60.8861 51.4585 61.4531 67.2551C63.5481 67.0052 65.6909 67.1376 67.7893 67.702C76.7566 70.0996 82.0722 79.2922 79.6638 88.2595C77.6336 95.8443 70.7819 100.708 63.4776 100.708C62.9401 100.708 62.4044 100.547 61.8668 100.495C61.7993 109.445 61.5964 118.3 61.2103 126.757C66.9418 129.138 71.4213 132.31 74.3464 136.419C80.27 144.741 78.6909 154.501 78.0679 157.299C75.9926 166.593 81.4723 176.054 90.8604 177.862C96.1666 178.879 101.5 179.381 106.795 179.381C152.818 179.381 191.375 141.998 191 94.8281C190.608 46.9875 149.208 9.67982 107.019 11.2694ZM126.468 51.9747C133.025 45.4282 143.67 45.4282 150.217 51.9747C156.763 58.5213 156.763 69.1718 150.217 75.7181V75.7237C143.671 82.2587 133.02 82.2594 126.473 75.7237C119.932 69.1715 119.932 58.5213 126.468 51.9747ZM78.8931 56.5975C76.5112 47.7511 81.7058 38.466 90.7619 36.0453C99.6636 33.6574 108.915 38.9688 111.319 47.9141C113.723 56.8632 108.42 66.0707 99.4505 68.4716C90.5045 70.8692 81.297 65.5883 78.8931 56.5975ZM122.62 154.954C113.676 157.35 104.462 152.023 102.063 143.085C99.6594 134.136 104.963 124.929 113.932 122.528C122.939 120.132 132.097 125.453 134.489 134.402C136.9 143.365 131.57 152.561 122.62 154.954ZM166.145 111.429C163.748 120.396 154.534 125.704 145.588 123.298C136.644 120.904 131.305 111.725 133.719 102.74C136.141 93.6911 145.41 88.4957 154.276 90.8716C163.222 93.2703 168.545 102.495 166.145 111.429Z"/>
<path d="M151.381 101.68C148.45 100.89 145.346 102.598 144.528 105.636C143.72 108.651 145.518 111.693 148.479 112.489C151.543 113.281 154.543 111.485 155.337 108.533C156.135 105.555 154.359 102.478 151.381 101.68Z"/>
<path d="M50.6671 101.096C50.6827 99.2234 50.7346 97.3805 50.7346 95.5C50.7346 52.1061 47.8219 0 33.9475 0C20.0731 0 17.1604 52.1061 17.1604 95.5C17.1604 97.3805 17.2122 99.2234 17.2279 101.096H50.6671Z"/>
<path d="M33.9473 123.478C39.778 123.478 45.1838 125.106 49.9666 127.73C50.2084 122.709 50.393 117.536 50.5221 112.287H17.3724C17.5015 117.536 17.6858 122.709 17.9279 127.73C22.7107 125.105 28.1165 123.478 33.9473 123.478Z"/>
</svg>
