<svg width="277" height="38" viewBox="0 0 277 38" fill="none" xmlns="http://www.w3.org/2000/svg">
<path d="M0.36 28.816H5.928V34H0.36V28.816ZM21.3293 34.48C19.0253 34.48 17.2173 34.256 15.9053 33.808C14.5933 33.328 13.6333 32.56 13.0253 31.504C12.4493 30.448 12.1613 28.976 12.1613 27.088V16.864C12.1613 14.528 12.8813 12.848 14.3213 11.824C15.7933 10.8 18.2093 10.288 21.5693 10.288C23.5853 10.288 25.3133 10.544 26.7533 11.056C28.2253 11.568 28.9773 12.304 29.0093 13.264H29.1053L29.0093 7.36V0.399998H33.3293V34H29.1053V31.264C29.1053 32.128 28.4173 32.864 27.0413 33.472C25.6653 34.144 23.7613 34.48 21.3293 34.48ZM22.2413 31.504C24.6413 31.504 26.3693 31.232 27.4253 30.688C28.4813 30.144 29.0093 29.216 29.0093 27.904V16.432C29.0093 14.352 26.8813 13.312 22.6253 13.312C20.0653 13.312 18.4013 13.504 17.6333 13.888C16.8333 14.272 16.4333 15.12 16.4333 16.432V27.904C16.4333 29.216 16.8653 30.144 17.7293 30.688C18.6253 31.232 20.1293 31.504 22.2413 31.504ZM50.2391 34.48C43.1351 34.48 39.5831 32.112 39.5831 27.376V18.208C39.5831 15.392 40.3831 13.376 41.9831 12.16C43.6151 10.912 46.2391 10.288 49.8551 10.288C53.2791 10.288 55.7431 10.88 57.2471 12.064C58.7831 13.248 59.5511 15.296 59.5511 18.208V23.344H43.9511V26.848C43.9511 28.448 44.5111 29.6 45.6311 30.304C46.7511 31.008 48.4791 31.36 50.8151 31.36C53.0231 31.36 55.6311 30.976 58.6391 30.208V33.52C55.6951 34.16 52.8951 34.48 50.2391 34.48ZM55.2311 20.512V16.864C55.2311 15.456 54.7991 14.496 53.9351 13.984C53.1031 13.44 51.6631 13.168 49.6151 13.168C47.6311 13.168 46.1911 13.44 45.2951 13.984C44.3991 14.496 43.9511 15.456 43.9511 16.864V20.512H55.2311ZM65.7986 37.36H86.8226V40.768H65.7986V37.36ZM93.6424 37.36H114.666V40.768H93.6424V37.36ZM121.822 10.768H126.142V13.6C126.59 11.392 129.198 10.288 133.966 10.288C137.838 10.288 140.254 11.344 141.214 13.456C141.502 12.432 142.366 11.648 143.806 11.104C145.278 10.56 147.07 10.288 149.182 10.288C152.062 10.288 154.094 10.832 155.278 11.92C156.462 12.976 157.054 14.656 157.054 16.96V34H152.734V17.248C152.734 16.64 152.686 16.144 152.59 15.76C152.494 15.376 152.302 14.992 152.014 14.608C151.374 13.808 149.95 13.408 147.742 13.408C146.046 13.408 144.782 13.52 143.95 13.744C143.118 13.968 142.542 14.352 142.222 14.896C141.934 15.44 141.79 16.224 141.79 17.248V34H137.47V17.248C137.47 16.64 137.422 16.144 137.326 15.76C137.23 15.376 137.038 14.992 136.75 14.608C136.11 13.808 134.702 13.408 132.526 13.408C130.766 13.408 129.438 13.52 128.542 13.744C127.646 13.968 127.022 14.352 126.67 14.896C126.318 15.408 126.142 16.192 126.142 17.248V34H121.822V10.768ZM174.317 34.48C167.213 34.48 163.661 32.112 163.661 27.376V18.208C163.661 15.392 164.461 13.376 166.061 12.16C167.693 10.912 170.317 10.288 173.933 10.288C177.357 10.288 179.821 10.88 181.325 12.064C182.861 13.248 183.629 15.296 183.629 18.208V23.344H168.029V26.848C168.029 28.448 168.589 29.6 169.709 30.304C170.829 31.008 172.557 31.36 174.893 31.36C177.101 31.36 179.709 30.976 182.717 30.208V33.52C179.773 34.16 176.973 34.48 174.317 34.48ZM179.309 20.512V16.864C179.309 15.456 178.877 14.496 178.013 13.984C177.181 13.44 175.741 13.168 173.693 13.168C171.709 13.168 170.269 13.44 169.373 13.984C168.477 14.496 168.029 15.456 168.029 16.864V20.512H179.309ZM190.213 10.768H194.533V13.6C194.981 11.392 197.525 10.288 202.165 10.288C205.141 10.288 207.221 10.832 208.405 11.92C209.621 12.976 210.229 14.656 210.229 16.96V34H205.909V17.2C205.909 16.592 205.861 16.096 205.765 15.712C205.669 15.328 205.477 14.944 205.189 14.56C204.549 13.76 203.125 13.36 200.917 13.36C199.221 13.36 197.909 13.488 196.981 13.744C196.085 13.968 195.445 14.352 195.061 14.896C194.709 15.44 194.533 16.208 194.533 17.2V34H190.213V10.768ZM227.472 34.48C225.488 34.48 223.936 34.272 222.816 33.856C221.696 33.408 220.88 32.672 220.368 31.648C219.888 30.592 219.648 29.12 219.648 27.232V13.6H214.464V10.768H219.648V3.568H224.016V10.768H232.32V13.6H224.016V27.472C224.016 28.624 224.144 29.488 224.4 30.064C224.688 30.64 225.168 31.056 225.84 31.312C226.544 31.536 227.552 31.648 228.864 31.648C229.28 31.648 230.432 31.52 232.32 31.264V34.096C230.688 34.352 229.072 34.48 227.472 34.48ZM246.881 34.48C244.833 34.48 243.297 34.4 242.273 34.24C241.249 34.112 240.225 33.808 239.201 33.328C238.145 32.848 237.377 32.08 236.897 31.024C236.417 29.936 236.177 28.48 236.177 26.656V18.592C236.177 17.152 236.353 15.888 236.705 14.8C237.057 13.712 237.521 12.864 238.097 12.256C238.577 11.712 239.297 11.296 240.257 11.008C241.249 10.688 242.257 10.48 243.281 10.384C244.433 10.32 245.633 10.288 246.881 10.288C248.545 10.288 249.793 10.336 250.625 10.432C251.489 10.496 252.401 10.656 253.361 10.912C254.353 11.2 255.121 11.632 255.665 12.208C256.209 12.784 256.673 13.616 257.057 14.704C257.409 15.824 257.585 17.12 257.585 18.592V26.656C257.585 29.376 256.961 31.36 255.713 32.608C255.201 33.12 254.465 33.52 253.505 33.808C252.545 34.096 251.553 34.288 250.529 34.384C249.313 34.448 248.097 34.48 246.881 34.48ZM246.881 31.648C248.225 31.648 249.201 31.616 249.809 31.552C250.417 31.488 251.009 31.312 251.585 31.024C252.161 30.768 252.561 30.352 252.785 29.776C253.041 29.168 253.169 28.336 253.169 27.28V17.872C253.169 16.432 252.993 15.392 252.641 14.752C252.289 14.08 251.681 13.648 250.817 13.456C249.985 13.232 248.673 13.12 246.881 13.12C245.089 13.12 243.761 13.232 242.897 13.456C242.065 13.648 241.473 14.08 241.121 14.752C240.769 15.392 240.593 16.432 240.593 17.872V27.28C240.593 28.336 240.705 29.168 240.929 29.776C241.185 30.352 241.601 30.768 242.177 31.024C242.753 31.312 243.345 31.488 243.953 31.552C244.561 31.616 245.537 31.648 246.881 31.648ZM264.322 10.768H268.402V14.56C268.402 13.824 268.722 13.136 269.362 12.496C270.002 11.824 270.818 11.296 271.81 10.912C272.802 10.496 273.778 10.288 274.738 10.288H276.85V13.984H274.45C272.402 13.984 270.914 14.256 269.986 14.8C269.09 15.312 268.642 16.256 268.642 17.632V34H264.322V10.768Z" fill="#F0F0F0"/>
</svg>
